<svg xmlns="http://www.w3.org/2000/svg" version="1.1" xmlns:xlink="http://www.w3.org/1999/xlink" xmlns:svgjs="http://svgjs.com/svgjs" width="137" height="137"><svg version="1.1" id="SvgjsSvg1000" xmlns="http://www.w3.org/2000/svg" xmlns:xlink="http://www.w3.org/1999/xlink" x="0px" y="0px" viewBox="0 0 137 137" style="enable-background:new 0 0 137 137;" xml:space="preserve">
<style type="text/css">
	.st0{fill:#C81E23;}
</style>
<g>
	<g>
		<polygon points="99.03,6.35 92.97,37.42 86.91,6.35 79.47,6.35 89.22,56.37 89.28,56.37 96.66,56.37 96.72,56.37 106.47,6.35 		
			"></polygon>
		<polygon points="131.42,12.88 131.42,6.35 118.29,6.35 110.85,6.35 110.85,12.88 110.85,27.03 110.85,33.33 110.85,49.83 
			110.85,56.37 118.29,56.37 131.42,56.37 131.42,49.83 118.29,49.83 118.29,33.33 129.58,33.33 129.58,27.03 118.29,27.03 
			118.29,12.88 		"></polygon>
		<polygon points="36.26,6.35 36.26,27.03 25.98,27.03 25.98,6.35 18.54,6.35 18.54,56.37 25.98,56.37 25.98,33.33 36.26,33.33 
			36.26,56.37 43.7,56.37 43.7,6.35 		"></polygon>
		<path d="M67.64,56.37h7.44L65.33,6.35h-0.05h-7.39h-0.05l-9.75,50.02h7.44l1.91-9.81h8.29L67.64,56.37z M58.67,40.25l2.92-14.96
			l2.92,14.96H58.67z"></path>
	</g>
	<g>
		<rect x="6.72" y="6.35" class="st0" width="7.44" height="13.51"></rect>
		<rect x="6.72" y="26.16" class="st0" width="7.44" height="30.2"></rect>
	</g>
</g>
<g>
	<g>
		<polygon class="st0" points="106.05,82.34 106.05,72.33 95.16,72.33 95.16,94.15 		"></polygon>
		<polygon class="st0" points="106.05,100 106.05,86.28 95.16,98.08 95.16,100 		"></polygon>
		<path class="st0" d="M120.85,59.35v10.31h4.11c0.5-1.08,1.59-1.82,2.86-1.82c1.74,0,3.16,1.41,3.16,3.16
			c0,1.74-1.41,3.16-3.16,3.16c-1.27,0-2.36-0.75-2.86-1.82h-4.11v4.68h10.89V59.35L120.85,59.35L120.85,59.35z"></path>
		<rect x="95.16" y="59.35" class="st0" width="10.89" height="10.31"></rect>
		<path class="st0" d="M126,103.08c-1.1,0-2.03-0.74-2.31-1.74h-2.83V114h10.89V79.68h-10.89V100h2.83
			c0.29-1.01,1.21-1.74,2.31-1.74c1.33,0,2.41,1.08,2.41,2.41C128.41,102,127.33,103.08,126,103.08z"></path>
		<rect x="95.16" y="101.34" class="st0" width="10.89" height="12.66"></rect>
		<path class="st0" d="M128.08,127.39L128.08,127.39L128.08,127.39h-23.1c-0.41,0.76-1.2,1.27-2.12,1.27
			c-0.22,0-0.42-0.03-0.62-0.08l-3.34,3.62c0.68,0.27,1.42,0.43,2.2,0.43h24.72c3.28,0,5.93-2.66,5.93-5.93v-3.28L128.08,127.39z"></path>
		<path class="st0" d="M100.47,126.56c-0.01-0.1-0.02-0.2-0.02-0.31c0-1.33,1.08-2.41,2.41-2.41c0.92,0,1.71,0.51,2.12,1.27h21.57
			l5.19-5.63v-2.81h-10.89v6.31h-14.8v-6.31H95.17v10.02c0,1.53,0.58,2.91,1.53,3.96L100.47,126.56z"></path>
	</g>
	<g>
		<path class="st0" d="M81.59,59.35H50.94v19.06h4.31c0.41-0.76,1.2-1.27,2.12-1.27c0.22,0,0.42,0.03,0.62,0.08l3.84-4.16v-4.07
			h14.8v0.67h10.89v-4.38C87.53,62,84.87,59.35,81.59,59.35z"></path>
		<path class="st0" d="M61.84,86.32V77l-2.07,2.25c0.01,0.1,0.02,0.2,0.02,0.31c0,1.33-1.08,2.41-2.41,2.41
			c-0.92,0-1.71-0.51-2.12-1.27h-4.31v5.63C50.94,86.32,61.84,86.32,61.84,86.32z"></path>
		<polygon class="st0" points="81.24,100.01 87.53,100.01 87.53,72.33 76.63,72.33 76.63,95.17 		"></polygon>
		<path class="st0" d="M80.35,101.34L80.35,101.34L80.35,101.34l-4.45-4.68H61.84v-9H50.94v11.1h9.86l0,0l0,0l6.96,7.55H82.1
			c2.84,0,5.17-2.18,5.41-4.96L80.35,101.34L80.35,101.34z"></path>
		<polygon class="st0" points="61.84,125.82 61.84,106.3 64.14,106.3 59.28,101.04 50.94,101.04 50.94,125.82 		"></polygon>
		<rect x="50.94" y="128.48" class="st0" width="10.89" height="4.14"></rect>
	</g>
	<g>
		<rect x="32.41" y="80.95" class="st0" width="10.89" height="2.53"></rect>
		<path class="st0" d="M43.3,121.27v-13.32H32.41v9.09h3.82c0.41-0.76,1.2-1.27,2.12-1.27c1.33,0,2.41,1.08,2.41,2.41
			c0,0.1-0.01,0.2-0.02,0.31L43.3,121.27z"></path>
		<path class="st0" d="M38.97,120.51c-0.2,0.05-0.41,0.08-0.62,0.08c-0.92,0-1.71-0.51-2.12-1.27h-3.82v3.65h-14.8v-3.65H6.72v7.36
			c0,3.28,2.66,5.93,5.93,5.93h24.72c3.28,0,5.93-2.66,5.93-5.93v-1.48L38.97,120.51z"></path>
		<rect x="6.72" y="101.05" class="st0" width="10.89" height="15.99"></rect>
		<path class="st0" d="M11.88,80.38c-0.37,0.18-0.78,0.29-1.22,0.29c-1.28,0-2.36-0.88-2.66-2.08H6.72v19.79h10.89V86.11
			L11.88,80.38z"></path>
		<path class="st0" d="M17.38,66.35H6.72v10.91h1.29c0.3-1.19,1.37-2.08,2.66-2.08c1.52,0,2.74,1.23,2.74,2.74
			c0,0.59-0.19,1.14-0.51,1.59l4.71,4.71V68.95h2.18L17.38,66.35z"></path>
		<path class="st0" d="M37.37,59.35H12.65c-2.86,0-5.25,2.02-5.81,4.72h12.06l0,0l0,0l4.51,4.89h8.99v7.95
			c0,0.8,0.65,1.44,1.44,1.44h8.01c0.8,0,1.44-0.65,1.44-1.44V65.28C43.3,62,40.65,59.35,37.37,59.35z"></path>
	</g>
</g>
</svg><style>@media (prefers-color-scheme: light) { :root { filter: none; } }
</style></svg>