<?xml version="1.0" encoding="utf-8"?>
<!-- Generator: Adobe Illustrator 27.0.0, SVG Export Plug-In . SVG Version: 6.00 Build 0)  -->
<svg version="1.1" id="Layer_1" xmlns="http://www.w3.org/2000/svg" xmlns:xlink="http://www.w3.org/1999/xlink" x="0px" y="0px"
	 viewBox="0 0 76 76" style="enable-background:new 0 0 76 76;" xml:space="preserve">
<style type="text/css">
	.st0{fill:#C81E23;}
</style>
<g>
	<g>
		<g>
			<polygon points="55,2.91 51.61,20.29 48.22,2.91 44.06,2.91 49.51,30.88 49.54,30.88 53.67,30.88 53.7,30.88 59.16,2.91 			"/>
			<polygon points="73.11,6.57 73.11,2.91 65.77,2.91 61.61,2.91 61.61,6.57 61.61,14.48 61.61,18 61.61,27.23 61.61,30.88 
				65.77,30.88 73.11,30.88 73.11,27.23 65.77,27.23 65.77,18 72.08,18 72.08,14.48 65.77,14.48 65.77,6.57 			"/>
			<polygon points="19.89,2.91 19.89,14.48 14.15,14.48 14.15,2.91 9.99,2.91 9.99,30.88 14.15,30.88 14.15,18 19.89,18 
				19.89,30.88 24.06,30.88 24.06,2.91 			"/>
			<path d="M37.44,30.89h4.16L36.15,2.92h-0.03h-4.13h-0.03l-5.45,27.97h4.16l1.07-5.49h4.64L37.44,30.89z M32.43,21.87l1.63-8.36
				l1.63,8.36H32.43z"/>
		</g>
		<g>
			<rect x="3.38" y="2.91" class="st0" width="4.16" height="7.55"/>
			<rect x="3.38" y="13.99" class="st0" width="4.16" height="16.89"/>
		</g>
	</g>
	<g>
		<g>
			<polygon class="st0" points="58.92,45.41 58.92,39.81 52.83,39.81 52.83,52.01 			"/>
			<polygon class="st0" points="58.92,55.28 58.92,47.61 52.83,54.21 52.83,55.28 			"/>
			<path class="st0" d="M67.2,32.55v5.77h2.3c0.28-0.6,0.89-1.02,1.6-1.02c0.97,0,1.77,0.79,1.77,1.77c0,0.97-0.79,1.77-1.77,1.77
				c-0.71,0-1.32-0.42-1.6-1.02h-2.3v2.62h6.09v-9.88L67.2,32.55L67.2,32.55z"/>
			<rect x="52.83" y="32.55" class="st0" width="6.09" height="5.77"/>
			<path class="st0" d="M70.08,57.01c-0.62,0-1.13-0.41-1.29-0.97H67.2v7.08h6.09V43.92H67.2v11.37h1.58
				c0.16-0.56,0.68-0.97,1.29-0.97c0.75,0,1.35,0.6,1.35,1.35C71.42,56.4,70.82,57.01,70.08,57.01z"/>
			<rect x="52.83" y="56.03" class="st0" width="6.09" height="7.08"/>
			<path class="st0" d="M71.24,70.6L71.24,70.6L71.24,70.6H58.32c-0.23,0.42-0.67,0.71-1.19,0.71c-0.12,0-0.24-0.02-0.35-0.05
				l-1.87,2.02c0.38,0.15,0.8,0.24,1.23,0.24h13.82c1.83,0,3.32-1.49,3.32-3.32v-1.83L71.24,70.6z"/>
			<path class="st0" d="M55.8,70.13c-0.01-0.06-0.01-0.11-0.01-0.17c0-0.75,0.6-1.35,1.35-1.35c0.51,0,0.96,0.29,1.19,0.71h12.06
				l2.9-3.15V64.6H67.2v3.53h-8.27V64.6h-6.09v5.6c0,0.85,0.32,1.63,0.85,2.22L55.8,70.13z"/>
		</g>
		<g>
			<path class="st0" d="M45.25,32.55H28.11v10.66h2.41c0.23-0.42,0.67-0.71,1.19-0.71c0.12,0,0.24,0.02,0.35,0.05l2.15-2.33v-2.27
				h8.27v0.37h6.09v-2.45C48.56,34.04,47.08,32.55,45.25,32.55z"/>
			<path class="st0" d="M34.2,47.64v-5.21l-1.16,1.26c0.01,0.06,0.01,0.11,0.01,0.17c0,0.75-0.6,1.35-1.35,1.35
				c-0.51,0-0.96-0.29-1.19-0.71h-2.41v3.15C28.11,47.64,34.2,47.64,34.2,47.64z"/>
			<polygon class="st0" points="45.05,55.29 48.56,55.29 48.56,39.81 42.47,39.81 42.47,52.58 			"/>
			<path class="st0" d="M44.55,56.03L44.55,56.03L44.55,56.03l-2.49-2.62H34.2v-5.03h-6.09v6.21h5.51l0,0l0,0l3.89,4.22h8.01
				c1.59,0,2.89-1.22,3.03-2.77L44.55,56.03L44.55,56.03z"/>
			<polygon class="st0" points="34.2,69.72 34.2,58.81 35.49,58.81 32.77,55.86 28.11,55.86 28.11,69.72 			"/>
			<rect x="28.11" y="71.21" class="st0" width="6.09" height="2.31"/>
		</g>
		<g>
			<rect x="17.74" y="44.63" class="st0" width="6.09" height="1.41"/>
			<path class="st0" d="M23.84,67.18v-7.45h-6.09v5.08h2.13c0.23-0.42,0.67-0.71,1.19-0.71c0.75,0,1.35,0.6,1.35,1.35
				c0,0.06-0.01,0.11-0.01,0.17L23.84,67.18z"/>
			<path class="st0" d="M21.41,66.75c-0.11,0.03-0.23,0.05-0.35,0.05c-0.51,0-0.96-0.29-1.19-0.71h-2.13v2.04H9.47v-2.04H3.38v4.12
				c0,1.83,1.49,3.32,3.32,3.32h13.82c1.83,0,3.32-1.49,3.32-3.32v-0.83L21.41,66.75z"/>
			<rect x="3.38" y="55.87" class="st0" width="6.09" height="8.94"/>
			<path class="st0" d="M6.26,44.31c-0.21,0.1-0.44,0.16-0.68,0.16c-0.72,0-1.32-0.49-1.49-1.16H3.38v11.07h6.09v-6.86L6.26,44.31z"
				/>
			<path class="st0" d="M9.34,36.46H3.38v6.1H4.1c0.17-0.67,0.77-1.16,1.49-1.16c0.85,0,1.53,0.69,1.53,1.53
				c0,0.33-0.11,0.64-0.28,0.89l2.64,2.64v-8.54h1.22L9.34,36.46z"/>
			<path class="st0" d="M20.52,32.55H6.7c-1.6,0-2.93,1.13-3.25,2.64h6.75l0,0l0,0l2.52,2.74h5.03v4.44c0,0.45,0.36,0.81,0.81,0.81
				h4.48c0.45,0,0.81-0.36,0.81-0.81v-6.5C23.84,34.04,22.35,32.55,20.52,32.55z"/>
		</g>
	</g>
</g>
</svg>
